<svg width="95" height="38" viewBox="0 0 95 38" fill="none" xmlns="http://www.w3.org/2000/svg">
<path d="M4.53259 0.681275L4.7555 2.34661L3.56662 3.86056L2.52636 4.39044L1.85762 5.2988L0 10.8247L0.148619 16.502L2.97219 17.9402L3.19509 18.4701L3.0465 18.9243L3.41802 19.6056H4.97843L5.34995 21.498L4.45828 25.0558L4.01245 25.7371L4.30967 38L13.895 37.9243L13.9693 33.6096L16.7929 33.4582L22.2914 24.9801L22.6629 24.8287L23.0345 24.2988L22.8116 23.7689V22.7849L22.44 21.8765L22.5143 21.1952L22.2914 20.5139L21.8456 19.6056L20.731 18.4701L20.5081 17.5618L20.8053 17.1076L20.4338 16.0478L20.5824 15.5936L20.5081 15.2151L21.1025 14.8367L22.6629 8.85657L20.9539 6.58566L20.8053 6.05578L18.7248 5.98008L18.3533 5.07171L18.5019 4.01195L17.4616 2.57371L17.3873 2.19522L13.4492 1.43825L13.3749 0.984064L11.7401 1.05976L11.5172 0.681275L10.7742 0.832669L10.254 0.454183L8.47074 0L4.53259 0.681275Z" fill="#00A6D7"/>
<path d="M35.5171 30.2032V30.6573C35.5171 30.733 35.5173 30.7332 35.5915 30.8088C35.6343 30.8524 35.6524 30.8709 35.6744 30.8787C35.6904 30.8844 35.7086 30.8844 35.74 30.8844H38.1178C38.1921 30.8844 38.1921 30.8844 38.2664 30.9601V32.3227C38.2664 32.3984 38.2664 32.3984 38.1921 32.4741C38.1178 32.5498 38.1178 32.5498 38.0435 32.5498H35.6657C35.5914 32.5498 35.5914 32.5498 35.5171 32.6255C35.4428 32.7012 35.4428 32.7012 35.4428 32.7769V33.0797C35.4428 33.1554 35.4428 33.1554 35.5171 33.2311C35.5914 33.3068 35.5914 33.3068 35.6657 33.3068H38.3407C38.415 33.3068 38.4151 33.3068 38.4894 33.3825C38.5636 33.4581 38.5636 33.4582 38.5636 33.5338V34.745C38.5636 34.8207 38.5635 34.8208 38.4893 34.8964C38.415 34.9721 38.415 34.9721 38.3407 34.9721H33.9567C33.8824 34.9721 33.8824 34.9721 33.8081 34.8964C33.7338 34.8207 33.7338 34.8206 33.7338 34.745V28.6892C33.7338 28.6135 33.7338 28.6135 33.8081 28.5378C33.8824 28.4621 33.8824 28.4621 33.9567 28.4621H38.3407C38.415 28.4621 38.4151 28.4622 38.4894 28.5379C38.5636 28.6135 38.5636 28.6136 38.5636 28.6892V29.9004C38.5636 29.976 38.5635 29.9762 38.4893 30.0518C38.415 30.1275 38.415 30.1275 38.3407 30.1275H35.6657C35.5914 30.1275 35.5914 30.1275 35.5171 30.2032Z" fill="#00A6D7"/>
<path d="M45.1027 28.6892V34.745C45.1027 34.8207 45.1026 34.8207 45.0284 34.8963C44.9543 34.9719 44.954 34.9721 44.8798 34.9721H43.6166C43.5423 34.9721 43.4679 34.9721 43.4679 34.8964C43.3936 34.8964 43.3193 34.8207 43.3193 34.745L41.0902 31.49C41.0902 31.4143 41.0159 31.4143 41.0159 31.4143C40.9416 31.4143 40.9416 31.49 40.9416 31.49V34.6693C40.9416 34.745 40.9416 34.745 40.8673 34.8207C40.793 34.8964 40.7929 34.8964 40.7186 34.8964H39.4554C39.424 34.8964 39.4059 34.8964 39.3898 34.8907C39.3679 34.8829 39.3498 34.8644 39.307 34.8208C39.2328 34.7452 39.2325 34.745 39.2325 34.6693V28.6135C39.2325 28.5378 39.2326 28.5378 39.3068 28.4622C39.3496 28.4186 39.3679 28.4 39.3898 28.3922C39.4059 28.3864 39.424 28.3864 39.4554 28.3864H40.7186C40.7929 28.3864 40.8673 28.3864 40.8673 28.4621C40.9416 28.4621 41.0159 28.5378 41.0159 28.6135L43.245 31.8685C43.245 31.9442 43.3193 31.9442 43.3193 31.9442C43.3193 31.9442 43.3937 31.9442 43.3937 31.8685V28.6892C43.3937 28.6136 43.3937 28.6135 43.4679 28.5378C43.5423 28.4621 43.5423 28.4621 43.6166 28.4621H44.8798C44.954 28.4621 44.954 28.4621 45.0282 28.5377C45.0282 28.5756 45.0469 28.5946 45.0655 28.6135C45.0841 28.6324 45.1027 28.6514 45.1027 28.6892Z" fill="#00A6D7"/>
<path d="M50.3786 30.1275H49.1898C49.1154 30.1275 49.1154 30.1275 49.0411 30.2032C48.9669 30.2788 48.9669 30.2789 48.9669 30.3546V34.745C48.9669 34.8207 48.9667 34.8208 48.8925 34.8964C48.8182 34.9721 48.8182 34.9721 48.7439 34.9721H47.4808C47.4065 34.9721 47.4064 34.972 47.3321 34.8963C47.2578 34.8207 47.2578 34.8207 47.2578 34.745V30.2788C47.2578 30.2032 47.2578 30.2031 47.1835 30.1275C47.1835 30.0518 47.1092 30.0518 47.0349 30.0518H45.7717C45.6975 30.0518 45.6973 30.0516 45.6231 29.976C45.5489 29.9004 45.5488 29.9004 45.5488 29.8247V28.6135C45.5488 28.5378 45.549 28.5376 45.6233 28.462C45.6661 28.4184 45.6842 28.4 45.7061 28.3922C45.7222 28.3864 45.7403 28.3864 45.7717 28.3864H50.3786C50.4529 28.3864 50.5272 28.3864 50.5272 28.4621C50.6015 28.5378 50.6015 28.5379 50.6015 28.6135V29.8247C50.6015 29.9004 50.6015 29.9004 50.5272 29.9761C50.5272 30.0518 50.4529 30.1275 50.3786 30.1275Z" fill="#00A6D7"/>
<path fill-rule="evenodd" clip-rule="evenodd" d="M52.6823 34.9721H51.4191C51.3448 34.9721 51.3448 34.9721 51.2705 34.8964C51.1962 34.8207 51.1962 34.8207 51.1962 34.7451V28.6892C51.1962 28.6136 51.1962 28.6135 51.2705 28.5378C51.3448 28.4621 51.3448 28.4621 51.4191 28.4621H54.0941C54.4656 28.4621 54.7629 28.5378 54.9858 28.6135C55.283 28.7649 55.5059 28.9163 55.7288 29.0677C55.9518 29.2948 56.1004 29.5219 56.1747 29.8247C56.3233 30.1275 56.3233 30.4303 56.3233 30.733C56.3233 30.8844 56.3233 31.1116 56.249 31.2629C56.2223 31.3173 56.2052 31.3813 56.1874 31.4482C56.1555 31.5676 56.1214 31.6957 56.0261 31.7928C55.9518 31.9442 55.8775 32.0956 55.7288 32.247C55.6545 32.3984 55.5059 32.4741 55.3573 32.5498C55.283 32.5498 55.283 32.6254 55.283 32.7011V32.8526L55.9518 33.7609C56.1747 34.0637 56.3976 34.3665 56.6205 34.5936C56.6205 34.6225 56.6314 34.6404 56.6406 34.6557C56.6556 34.6803 56.6664 34.6982 56.6205 34.745C56.6205 34.8207 56.5462 34.8207 56.4719 34.8207H54.8372C54.7629 34.8207 54.6886 34.8207 54.6143 34.745C54.54 34.745 54.4656 34.6693 54.4656 34.5936C54.3913 34.4801 54.2984 34.3476 54.2056 34.2151C54.1127 34.0826 54.0198 33.9502 53.9455 33.8366C53.8713 33.7232 53.7785 33.5909 53.6858 33.4586L53.6854 33.458C53.5926 33.3257 53.4996 33.193 53.4254 33.0797C53.4254 33.0329 53.397 33.015 53.3578 32.9903C53.3335 32.975 53.3052 32.9572 53.2768 32.9283C53.2025 32.9283 53.1282 32.8526 53.1282 32.8526C53.0539 32.8526 53.0538 32.8526 52.9795 32.9283C52.9053 33.0039 52.9053 33.004 52.9053 33.0796V34.5179C52.9053 34.5936 52.9052 34.5936 52.831 34.6692C52.831 34.8963 52.7566 34.9721 52.6823 34.9721ZM53.1282 31.49H54.0198C54.0941 31.49 54.1684 31.49 54.2427 31.4143C54.317 31.4143 54.3913 31.3386 54.4656 31.2629C54.5399 31.1872 54.6143 31.1115 54.6143 31.0358C54.6885 30.9602 54.6885 30.8845 54.6885 30.7332V30.506C54.6885 30.4681 54.67 30.4303 54.6514 30.3924C54.6328 30.3546 54.6143 30.3167 54.6143 30.2789C54.54 30.2032 54.4657 30.1275 54.3914 30.1275C54.3171 30.0518 54.2427 30.0518 54.0941 30.0518H53.1282C53.0539 30.0518 53.0538 30.0518 52.9795 30.1275C52.9053 30.2031 52.9053 30.2032 52.9053 30.2788V31.1872C52.9053 31.2629 52.9053 31.2629 52.9795 31.3386C53.0079 31.3675 53.0255 31.3964 53.0404 31.4211C53.0647 31.4611 53.0822 31.49 53.1282 31.49Z" fill="#00A6D7"/>
<path d="M58.9976 30.2789V30.6573C58.9976 30.733 58.9976 30.7331 59.0719 30.8087C59.1462 30.8844 59.1462 30.8844 59.2205 30.8844H61.5983C61.6297 30.8844 61.6478 30.8844 61.6639 30.8902C61.6858 30.898 61.7041 30.9166 61.7469 30.9602C61.8211 31.0358 61.8212 31.0359 61.8212 31.1115V32.3227C61.8212 32.3984 61.8208 32.3987 61.7466 32.4743C61.7039 32.5178 61.6858 32.5363 61.6639 32.5441C61.6478 32.5498 61.6297 32.5498 61.5983 32.5498H59.2205C59.1462 32.5498 59.1462 32.5498 59.0719 32.6255C58.9976 32.7012 58.9976 32.7012 58.9976 32.7769V33.0797C58.9976 33.1554 58.9976 33.1554 59.0719 33.2311C59.1462 33.3068 59.1462 33.3068 59.2205 33.3068H61.8954C61.9697 33.3068 61.9698 33.3068 62.0441 33.3824C62.1183 33.4581 62.1183 33.4582 62.1183 33.5338V34.7451C62.1183 34.8207 62.1183 34.8207 62.0441 34.8964C61.9698 34.9721 61.9697 34.9721 61.8954 34.9721H57.5115C57.4372 34.9721 57.4371 34.972 57.3628 34.8963C57.2886 34.8207 57.2886 34.8207 57.2886 34.745V28.6892C57.2886 28.6135 57.2887 28.6134 57.3629 28.5378C57.4372 28.4621 57.4372 28.4621 57.5115 28.4621H61.8954C61.9697 28.4621 61.9698 28.4621 62.0441 28.5378C62.1183 28.6135 62.1183 28.6136 62.1183 28.6892V29.9004C62.1183 29.9761 62.1183 29.9761 62.0441 30.0518C61.9698 30.1275 61.9697 30.1275 61.8954 30.1275H59.2205C59.1462 30.1275 59.1462 30.1275 59.0719 30.2032C58.9976 30.2032 58.9976 30.2789 58.9976 30.2789Z" fill="#00A6D7"/>
<path d="M69.5485 30.1275H68.3597C68.2854 30.1275 68.2853 30.1275 68.211 30.2032C68.1368 30.2788 68.1368 30.2789 68.1368 30.3545V34.745C68.1368 34.8207 68.1367 34.8207 68.0625 34.8963C68.0625 34.972 67.9882 34.9721 67.9138 34.9721H66.6507C66.5763 34.9721 66.5763 34.9721 66.502 34.8964C66.4277 34.8207 66.4277 34.8207 66.4277 34.7451V30.2789C66.4277 30.2032 66.4277 30.2032 66.3535 30.1275C66.3535 30.0518 66.2791 30.0518 66.2048 30.0518H64.9417C64.8673 30.0518 64.8673 30.0518 64.793 29.9761C64.7188 29.9005 64.7187 29.9004 64.7187 29.8247V28.6135C64.7187 28.5378 64.7187 28.5378 64.7929 28.4622C64.8673 28.3865 64.8673 28.3864 64.9417 28.3864H69.4742C69.5485 28.3864 69.6228 28.3864 69.6228 28.4621C69.6228 28.5 69.6414 28.5189 69.66 28.5378C69.6786 28.5567 69.6971 28.5757 69.6971 28.6135V29.8247C69.6971 29.9003 69.6971 29.9004 69.6228 29.9761C69.6228 30.0518 69.5485 30.1275 69.5485 30.1275Z" fill="#00A6D7"/>
<path fill-rule="evenodd" clip-rule="evenodd" d="M69.5486 31.7171C69.5486 31.2629 69.6229 30.8087 69.7715 30.4303C69.9201 30.0518 70.143 29.6733 70.4402 29.3705C70.7374 29.0677 71.109 28.8406 71.4805 28.6892C71.852 28.5378 72.2979 28.4621 72.7437 28.4621C73.1895 28.4621 73.6353 28.5378 74.0069 28.6892C74.3784 28.8406 74.7499 29.0677 75.0471 29.3705C75.3444 29.6733 75.5673 30.0518 75.7159 30.4303C75.8645 30.8087 75.9388 31.2629 75.9388 31.7171C75.9388 32.1713 75.8645 32.6255 75.7159 33.004C75.5673 33.3824 75.3444 33.7609 75.0471 34.0637C74.7499 34.3665 74.3784 34.5936 74.0069 34.745C73.6353 34.8964 73.1895 34.9721 72.7437 34.9721C72.2979 34.9721 71.852 34.8964 71.4805 34.745C71.109 34.5936 70.7374 34.3665 70.4402 34.0637C70.143 33.7609 69.9201 33.3824 69.7715 33.004C69.6229 32.6255 69.5486 32.1713 69.5486 31.7171ZM71.2576 31.7171C71.2576 31.9442 71.3319 32.1713 71.4062 32.3227C71.4528 32.4652 71.5287 32.5779 71.5972 32.6796C71.6378 32.7398 71.6758 32.7962 71.7034 32.8526C71.852 33.004 72.0006 33.1554 72.2236 33.2311C72.2701 33.2469 72.3134 33.2627 72.3548 33.2778C72.5117 33.3351 72.6416 33.3824 72.818 33.3824C73.0409 33.3824 73.2638 33.3068 73.4124 33.2311C73.6353 33.1554 73.784 33.004 73.9326 32.8526C74.0413 32.7417 74.1103 32.6309 74.1978 32.4904L74.1982 32.4897C74.2301 32.4385 74.2644 32.3833 74.3041 32.3227C74.3135 32.294 74.3228 32.2666 74.3321 32.2401L74.3499 32.189C74.4062 32.0291 74.4527 31.8968 74.4527 31.7171C74.4527 31.49 74.3784 31.2629 74.3041 31.1115C74.2298 30.8844 74.0812 30.733 73.9326 30.5817C73.784 30.4303 73.6353 30.2789 73.4124 30.2032C73.3664 30.1875 73.323 30.1717 73.282 30.1567L73.2812 30.1565C73.1242 30.0992 72.9944 30.0518 72.818 30.0518C72.5951 30.0518 72.3722 30.1275 72.2236 30.2032C72.0006 30.2789 71.852 30.4303 71.7034 30.5817C71.5548 30.733 71.4805 30.8844 71.4062 31.1115C71.2576 31.2629 71.2576 31.4901 71.2576 31.7171Z" fill="#00A6D7"/>
<path fill-rule="evenodd" clip-rule="evenodd" d="M76.3851 34.7449V28.7648C76.3851 28.6892 76.3851 28.6891 76.4594 28.6135C76.502 28.57 76.5205 28.5513 76.5424 28.5435C76.5584 28.5377 76.5766 28.5377 76.608 28.5377H78.9857C79.8774 28.5377 80.6204 28.8405 81.2149 29.3704C81.5121 29.6732 81.735 29.976 81.9579 30.4302C82.1065 30.8087 82.1808 31.2628 82.1808 31.7927C82.1808 32.3226 82.1065 32.7768 81.9579 33.1553C81.8093 33.5338 81.5864 33.9123 81.2149 34.215C80.9177 34.4421 80.6205 34.6692 80.2489 34.8206C79.8774 34.972 79.4316 35.0477 78.9857 35.0477H76.608C76.5766 35.0477 76.5584 35.0477 76.5424 35.042C76.5205 35.0342 76.5024 35.0158 76.4596 34.9722C76.3853 34.8208 76.3851 34.7449 76.3851 34.7449ZM78.317 33.3067H78.9857C79.1344 33.3067 79.283 33.3067 79.5059 33.231L79.9517 33.0039C80.026 32.9282 80.0817 32.8525 80.1375 32.7768C80.1932 32.7011 80.2489 32.6254 80.3232 32.5497C80.3975 32.3226 80.4718 32.0955 80.4718 31.717C80.4718 31.4142 80.3975 31.1115 80.3232 30.8844C80.2489 30.6573 80.1003 30.5059 79.9517 30.4302C79.8031 30.2788 79.6545 30.2031 79.5059 30.2031C79.3573 30.1274 79.1344 30.1274 78.9857 30.1274H78.317C78.2427 30.1274 78.2427 30.1274 78.1684 30.2031C78.0942 30.2787 78.0941 30.2788 78.0941 30.3545V33.0796C78.0941 33.1553 78.0941 33.1553 78.1683 33.2309C78.1683 33.3066 78.2427 33.3067 78.317 33.3067Z" fill="#00A6D7"/>
<path fill-rule="evenodd" clip-rule="evenodd" d="M82.3298 31.7171C82.3298 31.2629 82.4041 30.8087 82.5527 30.4303C82.7013 30.0518 82.9242 29.6733 83.2215 29.3705C83.5187 29.0677 83.8902 28.8406 84.2617 28.6892C84.6333 28.5378 85.0791 28.4621 85.5249 28.4621C85.9707 28.4621 86.4166 28.5378 86.7881 28.6892C87.1596 28.8406 87.5312 29.0677 87.8284 29.3705C88.1256 29.6733 88.3485 30.0518 88.4971 30.4303C88.6457 30.8087 88.72 31.2629 88.72 31.7171C88.72 32.1713 88.6457 32.6255 88.4971 33.004C88.3485 33.3824 88.1256 33.7609 87.8284 34.0637C87.5312 34.3665 87.1596 34.5936 86.7881 34.745C86.4166 34.8964 85.9707 34.9721 85.5249 34.9721C85.0791 34.9721 84.6333 34.8964 84.2617 34.745C83.8902 34.5936 83.5187 34.3665 83.2215 34.0637C82.9242 33.7609 82.7013 33.3824 82.5527 33.004C82.5323 32.8999 82.5062 32.7901 82.4792 32.6762C82.4079 32.3757 82.3298 32.0464 82.3298 31.7171ZM84.0388 31.7171C84.0388 31.9442 84.1131 32.1713 84.1874 32.3227C84.2341 32.4652 84.31 32.578 84.3784 32.6796C84.419 32.7398 84.457 32.7962 84.4846 32.8526C84.6333 33.004 84.7819 33.1554 85.0048 33.2311C85.0513 33.2469 85.0946 33.2627 85.136 33.2778C85.293 33.3351 85.4228 33.3824 85.5992 33.3824C85.8221 33.3824 86.045 33.3068 86.1936 33.2311C86.4166 33.1554 86.5652 33.004 86.7138 32.8526C86.8226 32.7418 86.8916 32.6309 86.979 32.4904C87.011 32.4389 87.0455 32.3835 87.0853 32.3227C87.1008 32.2753 87.1163 32.2312 87.1312 32.189C87.1874 32.0291 87.2339 31.8968 87.2339 31.7171C87.2339 31.49 87.1596 31.2629 87.0853 31.1115C87.011 30.8844 86.8624 30.733 86.7138 30.5817C86.5652 30.4303 86.4166 30.2789 86.1936 30.2032C86.1471 30.1874 86.1038 30.1716 86.0625 30.1565C85.9055 30.0992 85.7756 30.0518 85.5992 30.0518C85.3763 30.0518 85.1534 30.1275 85.0048 30.2032C84.7819 30.2789 84.6333 30.4303 84.4846 30.5817C84.336 30.733 84.2617 30.8844 84.1874 31.1115C84.1131 31.2629 84.0388 31.49 84.0388 31.7171Z" fill="#00A6D7"/>
<path d="M89.9827 32.7011C90.2799 32.9282 90.5771 33.0795 90.8743 33.1552C91.1716 33.3066 91.4688 33.3066 91.766 33.3066C91.9889 33.3066 92.2118 33.3066 92.3604 33.2309C92.509 33.1552 92.5833 33.0795 92.5833 32.9282C92.5833 32.8525 92.5834 32.7768 92.509 32.7768C92.4347 32.7011 92.3604 32.7011 92.2861 32.7011C92.249 32.7011 92.1933 32.6821 92.1375 32.6632C92.0818 32.6443 92.0261 32.6254 91.9889 32.6254C91.9146 32.6254 91.8589 32.6064 91.8032 32.5875C91.7474 32.5686 91.6917 32.5497 91.6174 32.5497C91.5431 32.5497 91.4688 32.5307 91.3945 32.5118C91.3202 32.4929 91.2459 32.474 91.1716 32.474C91.023 32.474 90.8 32.3983 90.6514 32.3226C90.5771 32.2847 90.4842 32.2469 90.3913 32.209C90.2985 32.1712 90.2056 32.1333 90.1313 32.0955C89.9827 32.0198 89.8342 31.8685 89.6856 31.7171C89.537 31.5657 89.4625 31.4142 89.3882 31.1871C89.3139 30.9601 89.2396 30.7329 89.2396 30.5059C89.2396 30.1274 89.314 29.7489 89.4626 29.5218C89.6112 29.2947 89.8341 29.0676 90.057 28.9162C90.2799 28.7648 90.5771 28.6891 90.8743 28.6134C91.1716 28.5377 91.4688 28.5377 91.6917 28.5377C92.2119 28.5377 92.5833 28.6134 92.9549 28.7648C93.3264 28.9162 93.6979 29.1433 94.0694 29.3704C94.1437 29.4461 94.1438 29.4461 94.1438 29.5218C94.1438 29.5975 94.1437 29.5975 94.0695 29.6731L93.4007 30.6573C93.4007 30.7329 93.3264 30.7329 93.2521 30.7329H93.1035C92.8063 30.5816 92.509 30.4302 92.2861 30.3545C92.0632 30.2788 91.766 30.2031 91.6174 30.2031H91.1716C91.0973 30.2031 91.0229 30.2788 91.0229 30.2788C90.9487 30.3544 90.9487 30.3545 90.9487 30.5057C90.9487 30.5814 91.0229 30.6573 91.0972 30.7329C91.1283 30.7487 91.156 30.7645 91.1826 30.7796C91.2833 30.8369 91.3667 30.8843 91.5431 30.8843C91.6917 30.96 91.8403 30.96 91.9889 30.96C92.076 30.96 92.1375 30.986 92.1885 31.0075C92.2246 31.0227 92.2554 31.0357 92.2861 31.0357C92.3976 31.0736 92.5091 31.0925 92.6205 31.1114C92.732 31.1304 92.8434 31.1493 92.9549 31.1871C93.1778 31.2628 93.4007 31.4142 93.6236 31.5656C93.8465 31.717 93.9952 31.9441 94.1438 32.1712C94.2924 32.3983 94.3667 32.7011 94.3667 33.0795C94.3667 33.458 94.2924 33.7608 94.2181 33.9879C94.0694 34.215 93.9208 34.4421 93.6979 34.5935C93.475 34.7449 93.2521 34.8963 92.9549 34.972C92.6576 35.0477 92.2861 35.1234 91.9146 35.1234C91.6174 35.1234 91.3202 35.1234 91.0972 35.0477C90.9858 35.0098 90.8559 34.972 90.7259 34.9342C90.5959 34.8963 90.4656 34.8584 90.3542 34.8206C90.1988 34.7678 90.0434 34.6782 89.9131 34.6032C89.8566 34.5706 89.8048 34.5407 89.7598 34.5178C89.7 34.4772 89.6456 34.4421 89.5951 34.4095C89.4572 34.3204 89.3484 34.2501 89.2396 34.1393C89.1653 34.1393 89.1653 34.0636 89.1653 33.9879C89.1653 33.9122 89.1653 33.8365 89.2396 33.8365L89.9084 32.8525C89.9084 32.7768 89.9827 32.7768 90.057 32.7768C89.9676 32.7313 89.9319 32.713 89.9339 32.7058C89.9353 32.7011 89.9531 32.7011 89.9827 32.7011Z" fill="#00A6D7"/>
<path d="M36.6317 5.82872C37.3748 5.82872 37.895 6.2829 38.0436 7.03987L38.1179 7.26697H39.5297L39.4554 6.88848C39.2325 5.37454 38.1179 4.46618 36.6317 4.46618C35.8144 4.46618 35.1456 4.76896 34.5512 5.29884C33.8081 6.05581 33.8081 6.88848 33.8081 8.47812C33.8081 10.0678 33.8081 10.9004 34.5512 11.6574C35.0713 12.1873 35.8144 12.4901 36.6317 12.4901C37.4491 12.4901 38.1922 12.1873 38.7866 11.5817C39.3068 11.0518 39.4554 10.4462 39.4554 9.46218V7.94824H36.2602V9.31078H38.0436V9.53788C38.0436 10.0678 37.9693 10.3705 37.7463 10.6733C37.4491 10.9761 37.0776 11.2032 36.6317 11.2032C36.2602 11.2032 35.8887 11.0518 35.5915 10.8247C35.2199 10.4462 35.1456 10.0678 35.1456 8.55381C35.1456 7.03987 35.2199 6.66139 35.5915 6.2829C35.8887 5.98012 36.1859 5.82872 36.6317 5.82872Z" fill="#00A6D7"/>
<path fill-rule="evenodd" clip-rule="evenodd" d="M40.7931 5.29884C41.3876 4.76896 42.0563 4.46618 42.8737 4.46618C43.6911 4.46618 44.3598 4.76896 44.9543 5.29884C45.6973 6.05581 45.6973 6.88848 45.6973 8.47812C45.6973 10.0678 45.6973 10.9004 44.9543 11.6574C44.3598 12.1873 43.6911 12.4901 42.8737 12.4901C42.0563 12.4901 41.3133 12.1873 40.7931 11.6574C40.0501 10.9004 40.0501 10.0678 40.0501 8.47812C40.0501 6.88848 40.0501 6.05581 40.7931 5.29884ZM43.8397 10.8247C44.2112 10.4462 44.2855 10.0678 44.2855 8.55381C44.2855 6.96418 44.2112 6.66139 43.914 6.2829C43.6167 5.98012 43.2452 5.82872 42.8737 5.82872C42.4279 5.82872 42.0563 5.98012 41.8334 6.2829C41.4619 6.66139 41.3876 7.03987 41.3876 8.55381C41.3876 10.0678 41.4619 10.4462 41.8334 10.8247C42.3535 11.3546 43.3195 11.3546 43.8397 10.8247Z" fill="#00A6D7"/>
<path fill-rule="evenodd" clip-rule="evenodd" d="M51.1209 8.40269C51.5667 8.02421 51.864 7.41863 51.864 6.81306C51.864 5.45052 50.898 4.54216 49.4119 4.54216H46.3654V12.4903H49.4862C50.9723 12.4903 51.9383 11.582 51.9383 10.1437C51.9383 9.46244 51.6411 8.78117 51.1209 8.40269ZM49.3376 7.79712H47.7772V5.9047H49.3376C49.8577 5.9047 50.4522 6.05609 50.4522 6.81306C50.4522 7.64572 49.7091 7.79712 49.3376 7.79712ZM49.4119 9.15966C50.155 9.15966 50.5265 9.53814 50.5265 10.1437C50.5265 10.7493 50.0806 11.1278 49.4119 11.1278H47.7772V9.08396H49.4119V9.15966Z" fill="#00A6D7"/>
<path d="M52.6817 4.54216H54.0934V12.4903H52.6817V4.54216Z" fill="#00A6D7"/>
<path d="M54.9856 12.4903H60.1127V11.1278H56.3974V9.15966H59.5182V7.79712H56.3974V5.9047H60.1127V4.54216H54.9856V12.4903Z" fill="#00A6D7"/>
<path fill-rule="evenodd" clip-rule="evenodd" d="M63.7538 4.54216C65.2399 4.54216 66.2059 5.45052 66.2059 6.88876C66.2059 7.94851 65.6858 8.70548 64.7941 9.08396L66.5774 12.4903H64.9427L63.308 9.23535H62.1191V12.4903H60.7073V4.54216H63.7538ZM63.6795 7.87281C64.1997 7.87281 64.7941 7.72142 64.7941 6.88876C64.7941 6.05609 64.1254 5.9047 63.6795 5.9047H62.1191V7.87281H63.6795Z" fill="#00A6D7"/>
<path d="M71.5553 9.61384L68.2115 4.54216H67.0227V12.4903H68.4344V7.41863L71.7039 12.4903H72.9671V4.54216H71.5553V9.61384Z" fill="#00A6D7"/>
<path fill-rule="evenodd" clip-rule="evenodd" d="M74.6012 5.29884C75.1957 4.76896 75.8644 4.46618 76.6818 4.46618C77.4248 4.46618 78.1679 4.76896 78.7623 5.29884C79.5054 6.05581 79.5054 6.88848 79.5054 8.47812C79.5054 10.0678 79.5054 10.9004 78.7623 11.6574C78.1679 12.1873 77.4991 12.4901 76.6818 12.4901C75.8644 12.4901 75.1214 12.1873 74.6012 11.6574C73.8582 10.9004 73.8582 10.0678 73.8582 8.47812C73.8582 6.88848 73.8582 6.05581 74.6012 5.29884ZM77.6477 10.8247C78.0193 10.4462 78.0936 10.0678 78.0936 8.55381C78.0936 6.96418 78.0192 6.66139 77.722 6.2829C77.4248 5.98012 77.1276 5.82872 76.6818 5.82872C76.2359 5.82872 75.8644 5.98012 75.6415 6.2829C75.27 6.66139 75.1957 7.03987 75.1957 8.55381C75.1957 10.1435 75.27 10.4462 75.6415 10.8247C76.1616 11.3546 77.1276 11.3546 77.6477 10.8247Z" fill="#00A6D7"/>
<path fill-rule="evenodd" clip-rule="evenodd" d="M87.456 5.29912C86.9358 4.76925 86.2671 4.54216 85.4497 4.54216H82.7004V12.4903H85.4497C86.2671 12.4903 87.0102 12.1875 87.456 11.7333C88.2734 10.9007 88.2733 9.61384 88.2733 8.62978V8.32699C88.2626 8.17452 88.255 8.02047 88.2474 7.86599C88.202 6.94677 88.1558 6.01198 87.456 5.29912ZM86.8615 8.32699V8.55408C86.8615 9.31105 86.8615 10.2951 86.49 10.7493C86.1928 11.0521 85.8212 11.2035 85.3011 11.2035H84.0379V5.9047H85.3011C85.8212 5.9047 86.1928 6.05609 86.49 6.35888C86.8615 6.73736 86.8615 7.57003 86.8615 8.32699Z" fill="#00A6D7"/>
<path d="M94.218 12.4903H89.1653V4.54216H94.218V5.9047H90.5771V7.79712H93.6979V9.15966H90.5771V11.1278H94.218V12.4903Z" fill="#00A6D7"/>
<path d="M37.5234 25.1314C36.4831 25.1314 35.5171 24.7529 34.7741 23.9959C34.3282 23.5417 34.031 23.0119 33.9567 22.482C33.8081 21.8764 33.8081 21.0437 33.8081 19.9083C33.8081 18.7728 33.8824 17.9401 33.9567 17.3346C34.1053 16.729 34.3282 16.2748 34.7741 15.8206C35.5171 15.0636 36.4088 14.6852 37.5234 14.6852C39.4553 14.6852 40.8671 15.8206 41.2387 17.9401H39.2324C39.0095 17.0318 38.4894 16.5019 37.5234 16.5019C37.0032 16.5019 36.5574 16.6533 36.2602 17.0318C35.8143 17.486 35.74 17.9401 35.74 19.9083C35.74 21.8764 35.8143 22.3306 36.2602 22.7848C36.5574 23.1632 37.0032 23.3146 37.5234 23.3146C38.4894 23.3146 39.0095 22.7091 39.2324 21.8764H41.2387C40.8671 23.9202 39.381 25.1314 37.5234 25.1314Z" fill="#00A6D7"/>
<path fill-rule="evenodd" clip-rule="evenodd" d="M45.4739 25.1314C46.6628 25.1314 47.4801 24.7529 48.2232 23.9959C49.1369 22.9934 49.1863 21.7878 49.2519 20.1867C49.2556 20.0952 49.2594 20.0024 49.2634 19.9083C49.2634 18.1673 49.2634 16.8803 48.2232 15.8206C47.4801 15.0636 46.5885 14.6852 45.4739 14.6852C44.285 14.6852 43.4677 15.0636 42.7246 15.8206C41.7586 16.8804 41.7586 18.1672 41.7586 19.9082C41.7586 20.0187 41.7583 20.1274 41.758 20.2343C41.7537 21.8116 41.7504 23.0035 42.7246 23.9959C43.4677 24.7529 44.3593 25.1314 45.4739 25.1314ZM45.4739 16.5019C45.994 16.5019 46.4399 16.729 46.7371 17.0318C47.1086 17.4103 47.2572 17.9401 47.2572 19.9083C47.2572 21.8764 47.1086 22.3306 46.7371 22.7848C46.4399 23.0875 45.994 23.3146 45.4739 23.3146C44.9538 23.3146 44.5079 23.0875 44.2107 22.7848C43.8392 22.3306 43.7649 21.8764 43.7649 19.9083C43.7649 17.9401 43.8392 17.486 44.2107 17.0318C44.5079 16.729 44.9538 16.5019 45.4739 16.5019Z" fill="#00A6D7"/>
<path fill-rule="evenodd" clip-rule="evenodd" d="M56.1736 25.0558L54.2417 20.9682H52.8299V25.0558H50.898V14.761H54.8361C56.9167 14.761 58.1056 16.1993 58.1056 17.9403C58.1056 19.3785 57.2139 20.2869 56.2479 20.6654L58.4771 25.0558H56.1736ZM54.6875 16.5777H52.8299V19.3028H54.6875C55.5792 19.3028 56.0993 18.773 56.0993 17.9403C56.0993 17.1076 55.5049 16.5777 54.6875 16.5777Z" fill="#00A6D7"/>
<path fill-rule="evenodd" clip-rule="evenodd" d="M63.3821 25.0558C64.4224 25.0558 65.3884 24.753 66.0572 24.0717C67.1058 22.9323 67.1021 21.5918 67.098 20.1133L67.0979 20.1097C67.0977 20.0179 67.0974 19.9255 67.0974 19.8327C67.0974 19.7433 67.0977 19.6542 67.098 19.5654C67.1021 18.15 67.106 16.8135 66.0572 15.7451C65.3884 15.0638 64.4224 14.761 63.3821 14.761H59.7412V25.0558H63.3821ZM63.1592 16.5777C63.828 16.5777 64.2738 16.7291 64.6453 17.1833C65.0169 17.6375 65.0912 18.3188 65.0912 19.9084C65.0912 21.4223 65.0169 22.1793 64.6453 22.6335C64.2738 23.012 63.828 23.2391 63.1592 23.2391H61.6731V16.5777H63.1592Z" fill="#00A6D7"/>
<path fill-rule="evenodd" clip-rule="evenodd" d="M74.8251 23.9959C74.082 24.7529 73.2647 25.1314 72.0758 25.1314C70.9613 25.1314 70.0696 24.7529 69.3265 23.9959C68.3524 23.0035 68.3557 21.8119 68.36 20.2346C68.3603 20.1276 68.3606 20.0189 68.3606 19.9083C68.3606 18.1673 68.3606 16.8804 69.3265 15.8206C70.0696 15.0636 70.8869 14.6852 72.0758 14.6852C73.1904 14.6852 74.082 15.0636 74.8251 15.8206C75.8653 16.8803 75.8653 18.1672 75.8653 19.9081C75.8653 21.6491 75.8653 22.9362 74.8251 23.9959ZM73.339 17.0318C73.0418 16.729 72.5959 16.5019 72.0758 16.5019C71.5557 16.5019 71.1098 16.729 70.8126 17.0318C70.4411 17.486 70.3668 17.9401 70.3668 19.9083C70.3668 21.8764 70.4411 22.3306 70.8126 22.7848C71.1098 23.0875 71.5557 23.3146 72.0758 23.3146C72.5959 23.3146 73.0418 23.0875 73.339 22.7848C73.7105 22.3306 73.8591 21.8764 73.8591 19.9083C73.8591 17.9401 73.7848 17.4103 73.339 17.0318Z" fill="#00A6D7"/>
<path fill-rule="evenodd" clip-rule="evenodd" d="M77.4999 25.0558H81.7352C83.5185 25.0558 84.7817 23.996 84.7817 22.0279C84.7817 20.6654 83.9644 20.0598 83.3699 19.757C83.8901 19.5299 84.6331 18.773 84.6331 17.6375C84.6331 15.8965 83.4442 14.761 81.5123 14.761H77.4999V25.0558ZM79.4318 16.5777H81.3637C82.1811 16.5777 82.7012 17.0319 82.7012 17.7132C82.7012 18.4702 82.1811 18.9243 81.3637 18.9243H79.4318V16.5777ZM79.4318 20.7411H81.5123C82.404 20.7411 82.8498 21.2709 82.8498 21.9522C82.8498 22.6335 82.404 23.2391 81.5123 23.2391H79.4318V20.7411Z" fill="#00A6D7"/>
<path fill-rule="evenodd" clip-rule="evenodd" d="M92.1376 25.0558L91.5432 23.2391H87.9766L87.3821 25.0558H85.3016L88.9426 14.761H90.5029L94.2181 25.0558H92.1376ZM89.8342 17.7889L88.571 21.498H91.0974L89.8342 17.7889Z" fill="#00A6D7"/>
<path d="M44.2111 14.1555H46.2916L46.7375 13.1716H44.6569L44.2111 14.1555Z" fill="#00A6D7"/>
<path d="M28.0386 25.5322H26.068V28.5149H28.0386V25.5322Z" fill="#FBBB21"/>
<path d="M28.0386 14.6154H26.068V20.4019H28.0386V14.6154Z" fill="#EE7326"/>
<path d="M28.0386 12.4081H26.068V14.6154H28.0386V12.4081Z" fill="#E73446"/>
<path d="M28.0386 7.09888H26.068V11.7818H28.0386V7.09888Z" fill="#00A8E6"/>
<path d="M26.6 0H27.5095C27.7874 0 28.04 0.268446 28.04 0.626374V8.97803L26.0694 8.41131V0.626374C26.0694 0.268446 26.2968 0 26.6 0Z" fill="#00A8E6"/>
<path d="M28.0386 10.7677L26.068 10.2606V12.7363L28.0386 12.4082V10.7677Z" fill="#E73446"/>
<path d="M26.068 14.6154L28.0386 14.1083V17.2104L26.068 14.6154Z" fill="#EE7326"/>
<path d="M26.068 17.1209L28.0386 19.7159V25.9796L26.068 26.3674V17.1209Z" fill="#FBBB21"/>
<path d="M28.0386 27.6499L26.068 28.1271V37.3736C26.068 37.7017 26.2954 38 26.5985 38H27.508C27.7859 38 28.0386 37.7316 28.0386 37.3736V27.6499Z" fill="#BCCF00"/>
<path d="M26.068 28.1271L28.0386 32.4521V27.6499" fill="#BCCF00"/>
</svg>
