<svg viewBox="0 0 143 38" fill="none" xmlns="http://www.w3.org/2000/svg">
<g clip-path="url(#clip0)">
<path d="M50.6053 4.1H58.1053C62.0053 4.1 64.2053 6.3 64.2053 9.5C64.2053 11.6 63.2053 13.7 61.0053 14.6L64.9053 21.3H60.2053L56.8053 15.2H54.9053V21.3H50.6053V4.1ZM57.6053 12.1C59.2053 12.1 60.1053 11.2 60.1053 9.8C60.1053 8.3 59.1053 7.5 57.6053 7.5H55.0053V12.1H57.6053Z" fill="#22AADE"/>
<path d="M66.9053 4.1H79.5053V7.6H71.2053V10.9H78.2053V14.4H71.2053V17.8H79.5053V21.3H66.9053V4.1Z" fill="#22AADE"/>
<path d="M82.0053 4.1H86.1053L92.6053 13.8V4.1H96.5053V21.3H92.5053L85.8053 11.2V21.3H81.9053V4.1H82.0053Z" fill="#22AADE"/>
<path d="M103.505 7.6H98.7053V4.1H112.605V7.6H107.805V21.4H103.505V7.6Z" fill="#22AADE"/>
<path d="M117.605 4.1H122.205L128.205 21.3H123.805L122.805 18.1H116.705L115.605 21.3H111.605L117.605 4.1ZM121.705 14.7L119.705 8.5H119.605L117.605 14.7H121.705Z" fill="#22AADE"/>
<path d="M139.805 8.6C137.405 7.3 136.305 7.2 134.905 7.2C133.705 7.2 132.605 7.6 132.605 8.8C132.605 9.8 133.605 10.2 134.805 10.5L137.505 11.2C139.905 11.8 141.305 13.8 141.305 15.9C141.305 19.9 138.405 21.5 134.905 21.5C132.705 21.5 131.505 21.3 129.205 20.1V16.3C130.605 17.1 132.205 18.1 134.705 18.1C136.005 18.1 137.405 17.7 137.405 16.5C137.405 15.4 136.505 15.1 135.505 14.8L132.605 14C130.305 13.4 128.605 12 128.605 9.2C128.605 6 131.305 3.7 135.105 3.7C136.805 3.7 138.205 4.1 140.005 4.8V8.6H139.805Z" fill="#22AADE"/>
<path d="M54.8053 35.1C54.3053 35.3 53.6053 35.5 52.8053 35.5C51.3053 35.5 49.9053 34.5 49.9053 32.8V29.8C49.9053 27.9 51.3053 26.9 52.8053 26.9C53.7053 26.9 54.5053 27.2 54.7053 27.3L54.5053 28.3C54.3053 28.2 53.6053 28 52.8053 28C51.8053 28 50.9053 28.7 50.9053 29.9V32.7C50.9053 33.8 51.7053 34.5 52.9053 34.5C53.6053 34.5 54.3053 34.3 54.7053 34.2L54.8053 35.1Z" fill="#22AADE"/>
<path d="M55.6053 29.7C55.6053 27.8 57.0053 26.9 58.6053 26.9C60.2053 26.9 61.6053 27.8 61.6053 29.7V32.7C61.6053 34.6 60.2053 35.5 58.6053 35.5C57.0053 35.5 55.6053 34.6 55.6053 32.7V29.7ZM56.6053 32.6C56.6053 33.8 57.3053 34.5 58.5053 34.5C59.7053 34.5 60.4053 33.8 60.4053 32.6V29.8C60.4053 28.6 59.7053 27.9 58.5053 27.9C57.3053 27.9 56.6053 28.6 56.6053 29.8V32.6ZM57.7053 25.9L59.5053 23.9L60.2053 24.7L58.2053 26.4L57.7053 25.9Z" fill="#22AADE"/>
<path d="M65.8053 27C67.1053 27 68.5053 27.8 68.5053 29.4V29.8C68.5053 31 67.8053 31.8 66.8053 32.1L68.5053 35.3H67.3053L65.7053 32.3H64.1053V35.3H63.0053V27H65.8053ZM64.1053 27.9V31.3H65.6053C66.6053 31.3 67.3053 30.8 67.3053 29.7V29.4C67.3053 28.3 66.6053 27.8 65.6053 27.8H64.1053V27.9Z" fill="#22AADE"/>
<path d="M69.7053 27H72.3053C73.9053 27 75.3053 28.1 75.3053 29.7V32.7C75.3053 34.6 73.9053 35.4 72.3053 35.4H69.7053V27ZM74.3053 29.7C74.3053 28.7 73.6053 27.9 72.3053 27.9H70.9053V34.4H72.3053C73.6053 34.4 74.3053 33.7 74.3053 32.6V29.7Z" fill="#22AADE"/>
<path d="M76.5053 29.7C76.5053 27.8 77.9053 26.9 79.5053 26.9C81.1053 26.9 82.5053 27.8 82.5053 29.7V32.7C82.5053 34.6 81.1053 35.5 79.5053 35.5C77.9053 35.5 76.5053 34.6 76.5053 32.7V29.7ZM77.6053 32.6C77.6053 33.8 78.3053 34.5 79.5053 34.5C80.7053 34.5 81.4053 33.8 81.4053 32.6V29.8C81.4053 28.6 80.7053 27.9 79.5053 27.9C78.3053 27.9 77.6053 28.6 77.6053 29.8V32.6Z" fill="#22AADE"/>
<path d="M84.0053 35.3V27H86.7053C88.3053 27 89.1053 27.8 89.1053 29.2C89.1053 30 88.7053 30.7 87.9053 31C88.8053 31.3 89.4053 32 89.4053 33C89.4053 34.6 88.3053 35.3 86.7053 35.3H84.0053ZM88.1053 29.2C88.1053 28.4 87.6053 27.9 86.7053 27.9H85.1053V30.6H86.7053C87.6053 30.6 88.1053 30.1 88.1053 29.2ZM86.6053 31.4H85.1053V34.3H86.6053C87.7053 34.3 88.3053 33.8 88.3053 32.8C88.4053 31.9 87.6053 31.4 86.6053 31.4Z" fill="#22AADE"/>
<path d="M95.5053 35.3L94.9053 33.2H91.6053L91.0053 35.3H89.8053L92.4053 27H94.0053L96.6053 35.3H95.5053ZM91.9053 32.3H94.6053L93.3053 27.9L91.9053 32.3Z" fill="#22AADE"/>
</g>
<g clip-path="url(#clip1)">
<path d="M22.1053 0C13.3684 0 5.89474 5.89474 3.78947 14H0L9.47368 22.2105C9.1579 21.0526 9.05263 20.3158 9.05263 18.9474C9.05263 17.1579 9.36842 15.4737 10.1053 13.8947C12.1053 9.1579 16.7368 5.89474 22.1053 5.89474C27.0526 5.89474 31.3684 8.63158 33.5789 12.6316V3.78947C30.3158 1.36842 26.4211 0 22.1053 0Z" fill="#F4B34C"/>
<path d="M34.7368 15.8947C34.9474 16.9474 35.1579 17.7895 35.1579 19.0526C35.1579 20.8421 34.8421 22.5263 34.1053 24.1053C32.1053 28.7368 27.4737 32.1053 22.1053 32.1053C17.0526 32.1053 12.6316 29.2632 10.5263 25.0526V34.1053C13.6842 36.5263 17.7895 38 22.1053 38C30.8421 38 38.2105 32.1053 40.4211 24H44.1053L34.7368 15.8947Z" fill="#ED8829"/>
</g>
<defs>
<clipPath id="clip0">
<rect width="93" height="33" fill="white" transform="translate(49.1053 3)"/>
</clipPath>
<clipPath id="clip1">
<rect width="44.1053" height="38" fill="white"/>
</clipPath>
</defs>
</svg>
