<svg width="112" height="38" viewBox="0 0 112 38" fill="none" xmlns="http://www.w3.org/2000/svg">
<path d="M16.0743 0V2.29604H18.3224V0H16.0743Z" fill="#00A6D7"/>
<path d="M16.0743 4.47728V15.3835H18.21V4.47728H16.0743Z" fill="#00A6D7"/>
<path d="M11.131 5.05132V15.3835H13.3791V3.37112e-05H11.131L6.74719 9.52859L2.36338 3.37112e-05H0.115262V15.3835H2.36338V5.05132L5.96034 12.5134H7.64642L11.131 5.05132Z" fill="#00A6D7"/>
<path d="M27.3144 15.3833V8.7248C27.3144 7.00277 26.4152 6.31395 25.1787 6.31395C23.9423 6.31395 22.9306 7.11757 22.9306 8.7248V15.3833H20.7949V4.47712H22.9306V5.62514C23.7174 4.82153 24.7291 4.36232 25.7407 4.36232C26.8648 4.36232 27.764 4.70673 28.326 5.39554C29.1129 6.19915 29.4501 7.23237 29.4501 8.49519V15.3833H27.3144Z" fill="#00A6D7"/>
<path d="M31.8105 0V2.29604H34.0587V0H31.8105Z" fill="#00A6D7"/>
<path d="M31.923 4.47728V15.3835H34.0587V4.47728H31.923Z" fill="#00A6D7"/>
<path d="M40.0166 15.4981C38.2181 15.4981 36.7569 15.1537 35.5204 13.8909L36.9817 12.3985C37.8809 13.3169 39.0049 13.5465 40.0166 13.5465C41.3654 13.5465 42.3771 13.0873 42.3771 12.0541C42.3771 11.3652 41.9275 10.7912 40.9158 10.7912L39.2297 10.6764C37.2065 10.5616 36.0824 9.52841 36.0824 7.69158C36.0824 5.51034 37.8809 4.36232 40.129 4.36232C41.7027 4.36232 43.0515 4.70673 44.0632 5.62514L42.7143 7.00277C42.0399 6.42876 41.1406 6.19915 40.129 6.19915C38.8926 6.19915 38.2181 6.77316 38.2181 7.57678C38.2181 8.26559 38.5553 8.7248 39.6794 8.8396L41.3654 8.9544C43.3887 9.06921 44.5128 10.1024 44.5128 12.0541C44.5128 14.2353 42.6019 15.4981 40.0166 15.4981Z" fill="#00A6D7"/>
<path d="M46.1993 12.3989C46.1993 13.8913 47.0986 15.3838 49.1218 15.3838H50.4706V13.4321H49.5714C48.6722 13.4321 48.335 12.9729 48.335 12.1693V6.31437H50.3582V4.59233H48.335V1.26305H46.1993V4.70713H44.9629V6.42917H46.1993V12.3989Z" fill="#00A6D7"/>
<path fill-rule="evenodd" clip-rule="evenodd" d="M53.8429 10.5617C53.8429 12.3986 54.8545 13.6614 56.5406 13.6614C57.777 13.6614 58.3391 13.317 59.1259 12.5134L60.4747 13.7762C59.3507 14.9242 58.3391 15.4982 56.4282 15.4982C53.7305 15.4982 51.5948 14.0058 51.5948 9.87294C51.5948 6.31407 53.3933 4.24763 56.091 4.24763C59.0135 4.24763 60.5872 6.42887 60.5872 9.52853V10.4469H53.8429V10.5617ZM58.3391 7.46209C58.0018 6.65847 57.215 6.08446 56.2034 6.08446C55.1917 6.08446 54.4049 6.65847 54.0677 7.46209C53.8429 7.9213 53.8429 8.2657 53.8429 8.95452H58.6763C58.6538 8.81683 58.6359 8.69748 58.6197 8.59007C58.5549 8.16015 58.5189 7.92136 58.3391 7.46209Z" fill="#00A6D7"/>
<path d="M66.9946 6.31395C67.669 6.31395 68.1186 6.54356 68.5682 7.00277L70.2543 5.39554C69.4675 4.59193 68.6807 4.36232 67.669 4.36232C66.545 4.36232 65.4209 4.82153 64.8589 5.62514V4.47712H62.7231V15.3833H64.8589V8.7248C64.8589 7.23237 65.8705 6.31395 66.9946 6.31395Z" fill="#00A6D7"/>
<path d="M70.9281 2.29604V0H73.1762V2.29604H70.9281Z" fill="#00A6D7"/>
<path d="M71.0406 15.3835V4.47728H73.1762V15.3835H71.0406Z" fill="#00A6D7"/>
<path fill-rule="evenodd" clip-rule="evenodd" d="M79.5829 15.3834C81.0442 15.3834 82.1683 14.8094 82.8427 14.1206C83.8543 13.0874 84.0791 11.7098 84.0791 9.75813C84.0791 7.9213 83.8543 6.54367 82.8427 5.51045C82.0559 4.82164 81.0442 4.24763 79.5829 4.24763C78.1216 4.24763 77.11 4.82164 76.4356 5.51045C75.4239 6.54367 75.1991 7.9213 75.1991 9.75813C75.1991 11.7098 75.4239 13.0874 76.4356 14.1206C77.11 14.8094 78.1216 15.3834 79.5829 15.3834ZM79.6953 6.31407C80.3698 6.31407 80.8194 6.42887 81.269 6.88808C81.9434 7.57689 82.0558 8.72491 82.0558 9.87293C82.0558 11.021 81.9434 12.169 81.269 12.8578C80.9318 13.317 80.3698 13.5466 79.6953 13.5466C79.0209 13.5466 78.5713 13.317 78.1217 12.8578C77.4472 12.169 77.3348 11.021 77.3348 9.87293C77.3348 8.72491 77.4472 7.57689 78.1217 6.88808C78.5713 6.54367 79.0209 6.31407 79.6953 6.31407Z" fill="#00A6D7"/>
<path fill-rule="evenodd" clip-rule="evenodd" d="M96.4437 15.3835V14.2355C95.6569 15.2687 94.7576 15.4983 93.6336 15.4983C92.5095 15.4983 91.6103 15.1539 91.0483 14.5799C89.9243 13.4318 89.8118 11.595 89.8118 9.98777C89.8118 8.38055 89.9243 6.42891 91.0483 5.3957C91.6103 4.82168 92.6219 4.47728 93.6336 4.47728C94.7576 4.47728 95.6569 4.70688 96.4437 5.7401V0H98.5794V15.3835H96.4437ZM94.1956 6.19931C92.2847 6.19931 91.9475 7.92134 91.9475 9.87297C91.9475 11.8246 92.2847 13.5466 94.1956 13.5466C96.1065 13.5466 96.4437 11.8246 96.4437 9.87297C96.4437 7.92134 96.1065 6.19931 94.1956 6.19931Z" fill="#00A6D7"/>
<path fill-rule="evenodd" clip-rule="evenodd" d="M105.324 13.6614C103.638 13.6614 102.626 12.3986 102.626 10.5617V10.4469H109.37V9.52853C109.37 6.42887 107.797 4.24763 104.874 4.24763C102.176 4.24763 100.378 6.31407 100.378 9.87294C100.378 14.0058 102.514 15.4982 105.211 15.4982C107.122 15.4982 108.134 14.9242 109.258 13.7762L107.909 12.5134C107.122 13.317 106.56 13.6614 105.324 13.6614ZM104.986 6.08446C105.998 6.08446 106.785 6.65847 107.122 7.46209C107.139 7.5047 107.155 7.54542 107.17 7.58457C107.363 8.07272 107.459 8.31684 107.459 8.95452H102.626C102.626 8.2657 102.626 7.9213 102.851 7.46209C103.188 6.65847 103.975 6.08446 104.986 6.08446Z" fill="#00A6D7"/>
<path d="M103.525 33.8671C102.288 33.8671 100.377 33.2931 99.3658 32.7191L98.0169 36.7372C99.4782 37.6556 101.501 38 103.525 38C107.347 38 110.494 35.9336 110.494 32.1451C110.494 30.4231 110.157 29.0454 109.145 28.127C108.358 27.4382 107.122 26.8642 105.548 26.6346L103.412 26.2902C102.738 26.1754 102.401 25.9458 102.176 25.7162C101.951 25.4866 101.839 25.1422 101.839 24.9126C101.839 24.109 102.401 23.1905 103.974 23.1905C104.761 23.1905 106.672 23.1905 108.021 24.2238L109.033 20.3205C107.796 19.6317 105.885 19.1725 104.199 19.1725C100.04 19.1725 97.5673 21.6981 97.5673 25.0274C97.5673 26.5198 98.0169 27.7826 98.8037 28.701C99.5906 29.5046 100.827 30.0787 102.401 30.3083L104.536 30.6527C105.211 30.6527 105.548 30.8823 105.773 31.1119C105.998 31.4563 106.11 31.8007 106.11 32.2599C106.11 33.2931 105.323 33.8671 103.525 33.8671Z" fill="#00A6D7"/>
<path d="M4.49621 26.5207V23.3062H12.2522V19.2881H0V37.7713H4.49621V30.6536H11.1281V26.5207H4.49621Z" fill="#00A6D7"/>
<path d="M14.0504 19.2891H18.5466V37.7723H14.0504V19.2891Z" fill="#00A6D7"/>
<path d="M31.3608 37.7723L25.5157 28.4733V37.7723H21.1319V19.2891H24.9537L30.7987 28.5881V19.2891H35.1825V37.7723H31.3608Z" fill="#00A6D7"/>
<path fill-rule="evenodd" clip-rule="evenodd" d="M47.0981 35.0171L47.8849 37.7723H52.7183L46.0865 19.2891H42.6019L35.9701 37.7723H40.5787L41.4779 35.0171H47.0981ZM42.8267 31.2286L44.4004 26.2921L45.974 31.2286H42.8267Z" fill="#00A6D7"/>
<path d="M63.622 37.7723L57.7769 28.4733V37.7723H53.2807V19.2891H57.2149L63.06 28.5881V19.2891H67.4438V37.7723H63.622Z" fill="#00A6D7"/>
<path d="M69.0169 34.2135V37.7723H79.2457L80.9318 33.7543H74.2999L81.269 22.848V19.2891H69.2417V23.3072H75.8736L69.0169 34.2135Z" fill="#00A6D7"/>
<path fill-rule="evenodd" clip-rule="evenodd" d="M92.8467 37.7723L92.0599 35.0171H86.4396L85.5404 37.7723H80.9318L87.5637 19.2891H91.0483L97.6802 37.7723H92.8467ZM89.3622 26.2921L87.7885 31.2286H90.9358L89.3622 26.2921Z" fill="#00A6D7"/>
</svg>
